<svg width="38" height="38" viewBox="0 0 38 38" fill="none" xmlns="http://www.w3.org/2000/svg">
<path d="M19 0.953125C18.0942 0.953125 17.2031 1.95312 17.2031 3.375C17.2031 4.79688 18.0942 5.79688 19 5.79688C19.9058 5.79688 20.7969 4.79688 20.7969 3.375C20.7969 1.95312 19.9058 0.953125 19 0.953125ZM10.8788 1.18555L9.62117 1.81445C10.8002 4.17266 13.6345 6.25273 16.0421 7.63023L17.1511 22.0469H18.2969V14H19.7031V22.0469H20.8489L21.9579 7.63023C24.3655 6.25273 27.1998 4.17266 28.3788 1.81445L27.1212 1.18555C25.5657 3.52148 23.6141 5.02523 21.5482 5.69883C20.9774 6.6 20.0742 7.20312 19 7.20312C17.9258 7.20312 17.0227 6.6 16.4518 5.69875C14.3859 5.02531 12.4343 3.52148 10.8788 1.18555ZM12.2031 23.4531V30.9531H0.953125V37.0469H37.0469V34.7031H25.7969V23.4531H12.2031Z" fill="#1A63C1"/>
</svg>
