<svg width="40" height="28" viewBox="0 0 40 28" fill="none" xmlns="http://www.w3.org/2000/svg">
<path d="M39.7655 9.33414L35.7159 1.23013C35.5855 0.969024 35.405 0.736157 35.1846 0.544826C34.9642 0.353495 34.7083 0.207447 34.4314 0.115021C34.1546 0.0225952 33.8623 -0.0143984 33.5711 0.00615178C33.28 0.026702 32.9958 0.104394 32.7346 0.234791L28.6771 2.26357L20.2429 0.031596C20.0836 -0.00967673 19.9164 -0.00967673 19.7571 0.031596L11.3229 2.26357L7.26694 0.234791C7.00576 0.104147 6.72139 0.0262581 6.43009 0.00557892C6.13878 -0.0151003 5.84626 0.0218354 5.56924 0.114274C5.29222 0.206712 5.03613 0.352841 4.81562 0.544307C4.59511 0.735773 4.41449 0.968822 4.2841 1.23013L0.234475 9.33414C-0.0289884 9.86128 -0.072305 10.4715 0.114051 11.0305C0.300407 11.5896 0.701176 12.0518 1.22823 12.3154L5.5382 14.4712L14.3661 20.7766C14.4618 20.8456 14.5694 20.8962 14.6836 20.9258L24.8434 23.4658C24.9207 23.4851 25.0002 23.4947 25.0799 23.4943C25.3324 23.4941 25.5745 23.3936 25.753 23.2149L34.5332 14.4347L38.7718 12.3154C39.2988 12.0518 39.6996 11.5896 39.886 11.0305C40.0723 10.4715 40.029 9.86128 39.7655 9.33414ZM31.352 14.9157L25.6688 10.3628C25.4856 10.2161 25.2546 10.1423 25.0202 10.1555C24.7858 10.1687 24.5645 10.2679 24.3989 10.4343C21.4382 13.4171 18.1284 13.0409 16.0186 11.6915C15.9772 11.6659 15.9421 11.6312 15.9162 11.5899C15.8904 11.5486 15.8743 11.5019 15.8694 11.4534C15.8638 11.409 15.8681 11.3638 15.8821 11.3212C15.8961 11.2787 15.9195 11.2398 15.9504 11.2073L22.9257 4.44475H28.3009L32.8108 13.4647L31.352 14.9157ZM1.92036 10.4279C1.89411 10.3483 1.90039 10.2616 1.93782 10.1866L5.98904 2.08101C6.01566 2.02817 6.05652 1.98382 6.10701 1.95297C6.1575 1.92211 6.21561 1.90598 6.27478 1.90639C6.32382 1.90644 6.37217 1.91786 6.41606 1.93973L9.94182 3.70182L5.60487 12.3821L2.07911 10.62C2.04106 10.6003 2.00738 10.5732 1.9801 10.5402C1.95282 10.5072 1.9325 10.469 1.92036 10.4279ZM24.7878 21.4878L15.3265 19.1225L7.24631 13.3504L11.8785 4.08757L20 1.93814L22.3494 2.56043C22.1698 2.59519 22.0042 2.68184 21.8732 2.80966L14.6185 9.85007C14.3829 10.0855 14.2033 10.3708 14.0929 10.685C13.9824 10.9991 13.944 11.3341 13.9804 11.6651C14.0168 11.9962 14.1272 12.3148 14.3033 12.5974C14.4794 12.88 14.7168 13.1195 14.9979 13.298C18.2078 15.349 22.1018 14.9633 25.1259 12.363L30.001 16.2714L24.7878 21.4878ZM38.0796 10.4279C38.0666 10.4675 38.0458 10.5042 38.0186 10.5358C37.9913 10.5674 37.9582 10.5933 37.9209 10.6121L34.3951 12.3821L30.0582 3.70182L33.5839 1.93973C33.6213 1.92098 33.662 1.90978 33.7036 1.90679C33.7453 1.90379 33.7872 1.90905 33.8268 1.92227C33.8664 1.93533 33.9031 1.95608 33.9347 1.98331C33.9663 2.01055 33.9922 2.04375 34.011 2.08101L38.0622 10.1866C38.0996 10.2616 38.1059 10.3483 38.0796 10.4279ZM20.3 26.5819C20.2389 26.8269 20.083 27.0376 19.8666 27.1677C19.6502 27.2978 19.391 27.3366 19.1459 27.2757L12.5215 25.6199C12.4072 25.5906 12.2994 25.54 12.204 25.4707L8.01782 22.4847C7.81215 22.3373 7.67344 22.1143 7.63221 21.8647C7.59097 21.6151 7.65059 21.3593 7.79795 21.1536C7.94531 20.9479 8.16833 20.8092 8.41796 20.768C8.66759 20.7268 8.92337 20.7864 9.12904 20.9337L13.1596 23.8118L19.6063 25.4231C19.728 25.4535 19.8424 25.5076 19.9431 25.5824C20.0438 25.6572 20.1288 25.7511 20.1931 25.8588C20.2574 25.9664 20.2998 26.0857 20.3179 26.2098C20.336 26.334 20.3309 26.4604 20.3 26.5819Z" fill="#1A63C1"/>
</svg>
