<svg width="40" height="40" viewBox="0 0 40 40" fill="none" xmlns="http://www.w3.org/2000/svg">
<path d="M39.9934 22.365C39.9972 21.5425 39.8678 18.4394 39.769 17.5519C38.6315 7.36625 30.3647 -0.0262451 20.1134 -0.0262451C9.4359 -0.0262451 0.784688 8.20126 0.197773 19.1106C0.185273 19.3488 0.0977734 21.0381 0.0915234 22.0438L0.0883984 22.6031C0.0371094 22.8344 0.00585938 23.0731 0.00585938 23.3194V31.7044C0.00585938 33.5356 1.49523 35.025 3.32648 35.025H6.69711C8.52836 35.025 10.0183 33.5356 10.0183 31.7044V23.32C10.0183 21.4888 8.5277 19.9994 6.69707 19.9994H3.32586C3.10039 19.9994 2.87549 20.0222 2.65461 20.0675C2.67336 19.6619 2.69023 19.3419 2.69465 19.245C3.20902 9.68313 10.7859 2.47376 20.1134 2.47376C29.0696 2.47376 36.2902 8.93251 37.284 17.83C37.3259 18.2013 37.3796 19.145 37.4227 20.0925C37.1808 20.0363 36.9314 19.9993 36.6727 19.9993H33.3415C31.5102 19.9993 30.0209 21.4887 30.0209 23.32V31.6662C30.0209 32.9306 30.7396 34.02 31.7822 34.58L23.7572 37.7306V37.5268C23.7572 36.8368 23.1972 36.2768 22.5072 36.2768H18.7572C18.0672 36.2768 17.5072 36.8368 17.5072 37.5268V38.7768C17.5072 39.4668 18.0672 40.0268 18.7572 40.0268H22.5072C22.5178 40.0268 22.5272 40.0237 22.5378 40.0237L24.7784 40.015L37.6516 34.9612C37.8204 34.8912 37.9635 34.7868 38.081 34.6618C39.2079 34.13 39.9947 32.9925 39.9947 31.6662V23.3199C39.9947 23.1162 39.9697 22.9181 39.9341 22.7249C39.9685 22.6099 39.9929 22.4905 39.9935 22.3649L39.9934 22.365ZM3.3259 22.4994H6.6966C7.14973 22.4994 7.51781 22.8669 7.51781 23.32V31.705C7.51781 32.1581 7.14906 32.5256 6.69652 32.5256H3.32594C2.87281 32.5256 2.50535 32.1581 2.50535 31.705V23.32C2.50594 22.8669 2.8734 22.4994 3.3259 22.4994ZM32.5203 23.32C32.5203 22.8669 32.8879 22.4994 33.341 22.4994H36.6722C37.1254 22.4994 37.4934 22.8669 37.4934 23.32V31.6663C37.4934 32.1194 37.1247 32.4869 36.6722 32.4869H33.3409C32.8878 32.4869 32.5203 32.1194 32.5203 31.6663V23.32Z" fill="#1A63C1"/>
</svg>
