<svg width="37" height="35" viewBox="0 0 37 35" fill="none" xmlns="http://www.w3.org/2000/svg">
<path d="M10.75 2.5C9.75544 2.5 8.80161 2.89509 8.09835 3.59835C7.39509 4.30161 7 5.25544 7 6.25C7 7.24456 7.39509 8.19839 8.09835 8.90165C8.80161 9.60491 9.75544 10 10.75 10C11.7446 10 12.6984 9.60491 13.4017 8.90165C14.1049 8.19839 14.5 7.24456 14.5 6.25C14.5 5.25544 14.1049 4.30161 13.4017 3.59835C12.6984 2.89509 11.7446 2.5 10.75 2.5ZM4.5 6.25C4.5 4.5924 5.15848 3.00269 6.33058 1.83058C7.50269 0.65848 9.0924 0 10.75 0C12.4076 0 13.9973 0.65848 15.1694 1.83058C16.3415 3.00269 17 4.5924 17 6.25C17 7.9076 16.3415 9.49732 15.1694 10.6694C13.9973 11.8415 12.4076 12.5 10.75 12.5C9.0924 12.5 7.50269 11.8415 6.33058 10.6694C5.15848 9.49732 4.5 7.9076 4.5 6.25ZM25.75 5C25.087 5 24.4511 5.26339 23.9822 5.73223C23.5134 6.20107 23.25 6.83696 23.25 7.5C23.25 8.16304 23.5134 8.79893 23.9822 9.26777C24.4511 9.73661 25.087 10 25.75 10C26.413 10 27.0489 9.73661 27.5178 9.26777C27.9866 8.79893 28.25 8.16304 28.25 7.5C28.25 6.83696 27.9866 6.20107 27.5178 5.73223C27.0489 5.26339 26.413 5 25.75 5ZM20.75 7.5C20.75 6.17392 21.2768 4.90215 22.2145 3.96447C23.1521 3.02678 24.4239 2.5 25.75 2.5C27.0761 2.5 28.3479 3.02678 29.2855 3.96447C30.2232 4.90215 30.75 6.17392 30.75 7.5C30.75 8.82608 30.2232 10.0979 29.2855 11.0355C28.3479 11.9732 27.0761 12.5 25.75 12.5C24.4239 12.5 23.1521 11.9732 22.2145 11.0355C21.2768 10.0979 20.75 8.82608 20.75 7.5ZM4.5 15C3.50544 15 2.55161 15.3951 1.84835 16.0983C1.14509 16.8016 0.75 17.7554 0.75 18.75V19.03C0.750473 19.1446 0.758826 19.259 0.775 19.3725C0.917138 20.5846 1.36822 21.7398 2.085 22.7275C3.455 24.615 6.055 26.25 10.75 26.25C15.445 26.25 18.045 24.615 19.4175 22.7275C20.1334 21.7396 20.5836 20.5843 20.725 19.3725C20.7373 19.2587 20.7456 19.1444 20.75 19.03V18.75C20.75 17.7554 20.3549 16.8016 19.6517 16.0983C18.9484 15.3951 17.9946 15 17 15H4.5ZM3.25 18.9925V18.75C3.25 18.4185 3.3817 18.1005 3.61612 17.8661C3.85054 17.6317 4.16848 17.5 4.5 17.5H17C17.3315 17.5 17.6495 17.6317 17.8839 17.8661C18.1183 18.1005 18.25 18.4185 18.25 18.75V18.9925L18.24 19.1125C18.1435 19.8865 17.8528 20.6235 17.395 21.255C16.58 22.3775 14.805 23.75 10.75 23.75C6.695 23.75 4.92 22.3775 4.105 21.2575C3.64679 20.6253 3.35609 19.8874 3.26 19.1125L3.25 18.9925ZM28.46 16.45L29.1675 14.575C29.8125 12.875 31.8225 12.035 33.5175 12.7575L34.4875 13.1725C35.67 13.6775 36.65 14.5925 36.855 15.8225C37.9975 22.635 32.085 32.325 25.28 34.7975C24.05 35.2425 22.7225 34.8975 21.6675 34.1825L20.8025 33.595C20.4474 33.3558 20.1484 33.0424 19.9261 32.6764C19.7039 32.3104 19.5636 31.9006 19.5152 31.4752C19.4667 31.0497 19.5111 30.6188 19.6453 30.2122C19.7795 29.8056 20.0003 29.433 20.2925 29.12L21.655 27.6025C21.975 27.2501 22.3833 26.9894 22.8378 26.8474C23.2922 26.7055 23.7762 26.6874 24.24 26.795L27.3025 27.52C29.7308 26.0033 31.0325 23.87 31.2075 21.12L29.0125 18.97C28.6847 18.6496 28.4577 18.2403 28.3595 17.7926C28.2614 17.3448 28.2963 16.8782 28.46 16.45Z" fill="#1A63C1"/>
</svg>
