<svg width="40" height="36" viewBox="0 0 40 36" fill="none" xmlns="http://www.w3.org/2000/svg">
<path d="M2.31998 35.9682C2.19819 35.9678 2.08084 35.9225 1.99041 35.8409C1.89998 35.7593 1.84283 35.6472 1.82991 35.5261L0.0014987 16.9887L0 16.9423C0 16.6695 0.220309 16.4492 0.493072 16.4492H12.8319V35.9697L2.31998 35.9682ZM7.35561 31.075C7.35561 31.4606 7.46996 31.8391 7.68421 32.1597C7.89846 32.4804 8.20297 32.7303 8.55925 32.8779C8.91554 33.0254 9.30758 33.064 9.6858 32.9888C10.064 32.9136 10.4114 32.7279 10.6841 32.4552C10.9568 32.1825 11.1425 31.8351 11.2178 31.4569C11.293 31.0786 11.2544 30.6866 11.1068 30.3303C10.9592 29.974 10.7093 29.6695 10.3887 29.4553C10.068 29.241 9.69105 29.1267 9.30541 29.1267H9.30242C8.22485 29.1267 7.35261 29.9989 7.35111 31.0765L7.35561 31.075ZM8.07498 19.0854C8.07498 19.3567 8.29529 19.577 8.56805 19.577H9.71306C9.84343 19.577 9.96847 19.5252 10.0607 19.433C10.1528 19.3408 10.2046 19.2158 10.2046 19.0854C10.2046 18.955 10.1528 18.83 10.0607 18.7378C9.96847 18.6456 9.84343 18.5938 9.71306 18.5938H8.55906C8.42829 18.5938 8.30288 18.6458 8.21041 18.7382C8.11794 18.8307 8.06599 18.9561 8.06599 19.0869V19.0914L8.07498 19.0854ZM2.66468 19.0854C2.66468 19.3567 2.88499 19.577 3.15626 19.577H6.91049C7.04087 19.577 7.1659 19.5252 7.25809 19.433C7.35028 19.3408 7.40207 19.2158 7.40207 19.0854C7.40207 18.955 7.35028 18.83 7.25809 18.7378C7.1659 18.6456 7.04087 18.5938 6.91049 18.5938H3.14726C3.01689 18.5938 2.89186 18.6456 2.79967 18.7378C2.70748 18.83 2.65569 18.955 2.65569 19.0854V19.0899L2.66468 19.0854ZM17.3519 33.1552C17.0878 33.066 16.8383 32.9382 16.6116 32.776L16.6206 32.782L16.4707 32.6876C16.1216 32.4686 15.7768 32.2427 15.4366 32.0102L15.2852 31.9038C15.0874 31.7614 14.9945 31.6984 14.8926 31.7044C14.5329 31.7119 14.1732 31.7149 13.8135 31.7194V17.9988L13.794 16.8448C14.4699 16.4147 15.0934 16.0056 15.2807 15.8497C15.5355 15.3371 15.7873 14.9085 16.066 14.4979L16.0406 14.5383C16.1679 14.339 16.2953 14.1412 16.4122 13.9449L18.996 9.60763C19.1159 9.40381 19.2463 9.19998 19.3767 8.99616C19.594 8.67244 19.8248 8.28578 20.0361 7.88712L20.0721 7.81369C20.1904 7.57165 20.2318 7.29912 20.1905 7.03287L20.192 7.04036L20.183 2.36442C20.2774 1.68401 20.661 1.10851 21.2021 0.757819L21.2111 0.751824C21.6934 0.317387 22.3055 0.0540197 22.9526 0.00247526H22.963L23.0575 0.000976562C23.5685 0.000976562 24.0511 0.122371 24.4797 0.336685L24.4617 0.327693C24.748 0.465573 24.9923 0.612445 25.2216 0.777302L25.2066 0.766811L25.3655 0.87172C25.7266 1.06205 25.9964 1.38278 26.1163 1.77094L26.1193 1.78143C26.3996 2.82452 26.6558 3.7732 26.8941 4.72487L26.993 5.11303C27.1444 5.62259 27.2748 6.23856 27.3587 6.86951L27.3662 6.93245C27.1099 9.2914 26.6169 11.4435 25.9035 13.4938L25.9664 13.2869L37.4959 13.2704H37.5379C37.8872 13.2705 38.2324 13.3448 38.5508 13.4885C38.8691 13.6322 39.1533 13.842 39.3843 14.104C39.6153 14.3659 39.788 14.674 39.8909 15.0078C39.9937 15.3416 40.0243 15.6935 39.9808 16.04L39.9823 16.028C40.0145 16.5516 39.9075 17.0744 39.6722 17.5433C39.4369 18.0121 39.0816 18.4103 38.6424 18.6972L38.6304 18.7047C39.051 19.3197 39.2478 20.0603 39.1879 20.8029V20.7924C39.2404 21.3809 39.1034 21.9707 38.7968 22.4757C38.4902 22.9807 38.0302 23.3745 37.4839 23.5995L37.4659 23.6055C37.8012 24.2031 37.9568 24.8848 37.9141 25.5688V25.5598C37.9467 26.0721 37.8405 26.5837 37.6069 27.0408C37.3732 27.4978 37.0206 27.8835 36.5862 28.157L36.5742 28.1645C36.8803 28.85 36.9963 29.6053 36.9099 30.3511L36.9114 30.3316V30.6134C36.8899 30.9825 36.7942 31.3435 36.63 31.6748C36.4657 32.006 36.2363 32.3008 35.9555 32.5413C35.6746 32.7818 35.3482 32.9632 34.9956 33.0746C34.643 33.186 34.2716 33.2251 33.9035 33.1896L33.914 33.1911H27.2763L27.2538 33.1926L27.2298 33.1911H27.2313H18.374C18.2976 33.1911 18.2182 33.1911 18.1342 33.2031C18.0323 33.2091 17.9244 33.2181 17.8135 33.2181H17.791C17.6397 33.2182 17.4889 33.1981 17.3429 33.1582L17.3549 33.1612L17.3519 33.1552ZM8.33725 31.0765C8.33735 30.9504 8.36228 30.8256 8.41061 30.7092C8.45894 30.5928 8.52973 30.487 8.61894 30.3979C8.70814 30.3089 8.81402 30.2382 8.93052 30.1901C9.04702 30.1419 9.17186 30.1172 9.29792 30.1173C9.42398 30.1174 9.54878 30.1423 9.66521 30.1907C9.78163 30.239 9.8874 30.3098 9.97646 30.399C10.0655 30.4882 10.1362 30.5941 10.1843 30.7106C10.2325 30.8271 10.2572 30.9519 10.2571 31.078C10.2569 31.3326 10.1556 31.5766 9.9754 31.7565C9.79524 31.9364 9.55101 32.0373 9.29642 32.0371C9.04184 32.0369 8.79776 31.9356 8.61788 31.7555C8.438 31.5753 8.33706 31.3311 8.33725 31.0765Z" fill="#1A63C1"/>
</svg>
