<svg width="40" height="33" viewBox="0 0 40 33" fill="none" xmlns="http://www.w3.org/2000/svg">
<path d="M19.9646 32.6796C19.4281 32.6796 18.8969 32.574 18.4013 32.3687C17.9057 32.1634 17.4554 31.8625 17.0761 31.4832C16.6968 31.1038 16.3959 30.6535 16.1906 30.1579C15.9853 29.6623 15.8796 29.1311 15.8796 28.5947C15.8796 28.0582 15.9853 27.527 16.1906 27.0314C16.3959 26.5358 16.6968 26.0855 17.0761 25.7062C17.4554 25.3268 17.9057 25.026 18.4013 24.8207C18.8969 24.6154 19.4281 24.5097 19.9646 24.5097C21.048 24.5097 22.087 24.9401 22.8531 25.7062C23.6191 26.4722 24.0495 27.5113 24.0495 28.5947C24.0495 29.6781 23.6191 30.7171 22.8531 31.4832C22.087 32.2492 21.048 32.6796 19.9646 32.6796ZM19.9646 29.9563C20.3257 29.9563 20.672 29.8129 20.9274 29.5575C21.1828 29.3021 21.3262 28.9558 21.3262 28.5947C21.3262 28.2335 21.1828 27.8872 20.9274 27.6318C20.672 27.3765 20.3257 27.233 19.9646 27.233C19.6034 27.233 19.2571 27.3765 19.0017 27.6318C18.7464 27.8872 18.6029 28.2335 18.6029 28.5947C18.6029 28.9558 18.7464 29.3021 19.0017 29.5575C19.2571 29.8129 19.6034 29.9563 19.9646 29.9563ZM28.6492 20.0435C28.8841 20.3065 29.0077 20.6505 28.9941 21.0028C28.9806 21.3552 28.8308 21.6886 28.5764 21.9328C28.3219 22.177 27.9827 22.3129 27.6301 22.3121C27.2774 22.3112 26.9389 22.1735 26.6857 21.928C25.8183 21.0196 24.7751 20.2971 23.6196 19.8046C22.4642 19.3121 21.2206 19.0598 19.9646 19.0631C17.4128 19.0631 15.0272 20.0925 13.2843 21.8872C13.0317 22.1419 12.6887 22.2866 12.33 22.2898C11.9712 22.2931 11.6257 22.1547 11.3685 21.9046C11.1112 21.6545 10.9631 21.3131 10.9562 20.9544C10.9493 20.5957 11.0843 20.2488 11.3317 19.989C12.4516 18.8319 13.7933 17.9124 15.2765 17.2854C16.7598 16.6584 18.3542 16.3368 19.9646 16.3398C23.287 16.3398 26.3943 17.6933 28.6492 20.0435ZM34.1502 14.2156C34.2742 14.3446 34.3715 14.4966 34.4366 14.6632C34.5018 14.8297 34.5335 15.0074 34.5299 15.1862C34.5264 15.365 34.4877 15.5413 34.416 15.7052C34.3443 15.869 34.241 16.0171 34.1121 16.141C33.9832 16.2649 33.8311 16.3622 33.6646 16.4274C33.4981 16.4925 33.3203 16.5242 33.1415 16.5207C32.9627 16.5172 32.7864 16.4784 32.6226 16.4068C32.4588 16.3351 32.3107 16.2318 32.1867 16.1029C30.6077 14.4531 28.7104 13.1408 26.6096 12.2454C24.5088 11.3499 22.2482 10.8899 19.9646 10.8932C17.6992 10.8903 15.4564 11.3433 13.3698 12.2252C11.2831 13.1071 9.39527 14.3999 7.81865 16.0266C7.56694 16.2859 7.22254 16.4346 6.8612 16.44C6.49987 16.4453 6.15121 16.3069 5.89191 16.0552C5.63262 15.8035 5.48394 15.4591 5.47858 15.0978C5.47322 14.7365 5.61161 14.3878 5.86332 14.1285C7.69404 12.2404 9.88588 10.7398 12.3084 9.71618C14.7309 8.69253 17.3346 8.16667 19.9646 8.16991C22.6154 8.16622 25.2395 8.70007 27.6781 9.7392C30.1168 10.7783 32.3195 12.3012 34.153 14.2156M39.654 8.39322C39.8889 8.65627 40.0126 9.00018 39.999 9.35257C39.9854 9.70495 39.8356 10.0383 39.5812 10.2825C39.3268 10.5267 38.9876 10.6627 38.6349 10.6618C38.2823 10.6609 37.9437 10.5232 37.6905 10.2777C35.3995 7.8863 32.6477 5.98394 29.6011 4.68554C26.5544 3.38714 23.2763 2.71963 19.9646 2.72331C16.679 2.72019 13.4263 3.3777 10.3998 4.65676C7.37341 5.93582 4.63505 7.81032 2.34754 10.1688C2.2234 10.2991 2.07467 10.4035 1.90993 10.476C1.74519 10.5485 1.56772 10.5876 1.38778 10.591C1.20784 10.5945 1.02901 10.5622 0.861609 10.4961C0.694212 10.43 0.541578 10.3314 0.412532 10.206C0.283485 10.0805 0.180588 9.93073 0.109788 9.76527C0.0389892 9.59981 0.00169285 9.42195 5.63027e-05 9.24199C-0.00158025 9.06202 0.0324753 8.88352 0.100254 8.7168C0.168032 8.55008 0.268189 8.39845 0.394933 8.27067C2.93623 5.65109 5.97815 3.56905 9.33995 2.14826C12.7018 0.727464 16.3149 -0.00308652 19.9646 1.12879e-05C23.6432 -0.0033379 27.2844 0.738644 30.6684 2.18118C34.0525 3.62372 37.1091 5.7369 39.654 8.39322Z" fill="#1A63C1"/>
</svg>
