<svg width="82" height="82" viewBox="0 0 82 82" fill="none" xmlns="http://www.w3.org/2000/svg">
<path d="M34.8462 63.6087L28.6923 81M47.1538 63.6087L53.3077 81M22.5385 81H59.4615M44.0769 1V63.6087M16.3846 21.8696H28.6923M16.3846 42.7391H22.5385M77.9231 1H4.07692C3.26087 1 2.47824 1.36646 1.90121 2.01876C1.32417 2.67106 1 3.55577 1 4.47826V60.1304C1 61.0529 1.32417 61.9376 1.90121 62.5899C2.47824 63.2422 3.26087 63.6087 4.07692 63.6087H77.9231C78.7391 63.6087 79.5218 63.2422 80.0988 62.5899C80.6758 61.9376 81 61.0529 81 60.1304V4.47826C81 3.55577 80.6758 2.67106 80.0988 2.01876C79.5218 1.36646 78.7391 1 77.9231 1Z" stroke="#1A63C1" stroke-width="2" stroke-linecap="round" stroke-linejoin="round"/>
<path d="M44.0771 35.7825L51.5233 28.8259C53.7302 26.7617 56.505 25.6322 59.3695 25.6322C62.2339 25.6322 65.0087 26.7617 67.2156 28.8259L81.0002 42.739" stroke="#1A63C1" stroke-width="2" stroke-linecap="round" stroke-linejoin="round"/>
</svg>
