<svg width="82" height="82" viewBox="0 0 82 82" fill="none" xmlns="http://www.w3.org/2000/svg">
<path d="M4.07692 1H77.9231C79.7692 1 81 2.3913 81 4.47826V60.1304C81 62.2174 79.7692 63.6087 77.9231 63.6087H4.07692C2.23077 63.6087 1 62.2174 1 60.1304V4.47826C1 2.3913 2.23077 1 4.07692 1Z" stroke="#1A63C1" stroke-width="2" stroke-linecap="round" stroke-linejoin="round"/>
<path d="M34.8461 63.6087L28.6922 81M47.1538 63.6087L53.3076 81M22.5384 81H59.4615M23.0922 63.6087L54.323 29.6609C54.858 29.1435 55.5389 28.8592 56.243 28.8592C56.9471 28.8592 57.628 29.1435 58.163 29.6609L80.9999 48.7217M26.4768 32.3043C28.7463 32.3043 30.9228 31.2852 32.5275 29.4712C34.1322 27.6571 35.0338 25.1967 35.0338 22.6313C35.0338 20.0658 34.1322 17.6055 32.5275 15.7914C30.9228 13.9774 28.7463 12.9583 26.4768 12.9583C24.2074 12.9583 22.0309 13.9774 20.4262 15.7914C18.8215 17.6055 17.9199 20.0658 17.9199 22.6313C17.9199 25.1967 18.8215 27.6571 20.4262 29.4712C22.0309 31.2852 24.2074 32.3043 26.4768 32.3043Z" stroke="#1A63C1" stroke-width="2" stroke-linecap="round" stroke-linejoin="round"/>
</svg>
