<svg width="82" height="82" viewBox="0 0 82 82" fill="none" xmlns="http://www.w3.org/2000/svg">
<path d="M81 81L61.698 61.698M61.698 61.698C64.9997 58.3963 67.6187 54.4766 69.4056 50.1628C71.1924 45.8489 72.1121 41.2254 72.1121 36.5561C72.1121 31.8868 71.1924 27.2632 69.4056 22.9493C67.6187 18.6355 64.9997 14.7158 61.698 11.4141C58.3963 8.11244 54.4766 5.4934 50.1628 3.70654C45.8489 1.91968 41.2254 1 36.5561 1C31.8868 1 27.2632 1.91968 22.9493 3.70654C18.6355 5.4934 14.7158 8.11244 11.4141 11.4141C4.74607 18.0822 1 27.126 1 36.5561C1 45.9861 4.74607 55.0299 11.4141 61.698C18.0822 68.3661 27.126 72.1121 36.5561 72.1121C45.9861 72.1121 55.0299 68.3661 61.698 61.698Z" stroke="#1A63C1" stroke-width="2" stroke-linecap="round" stroke-linejoin="round"/>
</svg>
