<svg width="48" height="48" viewBox="0 0 48 48" fill="none" xmlns="http://www.w3.org/2000/svg">
<path d="M14.2003 0.666748H33.8003C41.267 0.666748 47.3337 6.73341 47.3337 14.2001V33.8001C47.3337 37.3893 45.9078 40.8316 43.3698 43.3696C40.8318 45.9076 37.3896 47.3334 33.8003 47.3334H14.2003C6.73366 47.3334 0.666992 41.2668 0.666992 33.8001V14.2001C0.666992 10.6108 2.09282 7.16856 4.63081 4.63057C7.16881 2.09258 10.6111 0.666748 14.2003 0.666748ZM13.7337 5.33341C11.5058 5.33341 9.36927 6.21841 7.79396 7.79372C6.21866 9.36902 5.33366 11.5056 5.33366 13.7334V34.2667C5.33366 38.9101 9.09033 42.6667 13.7337 42.6667H34.267C36.4948 42.6667 38.6314 41.7817 40.2067 40.2064C41.782 38.6311 42.667 36.4946 42.667 34.2667V13.7334C42.667 9.09008 38.9103 5.33341 34.267 5.33341H13.7337ZM36.2503 8.83341C37.0239 8.83341 37.7657 9.14071 38.3127 9.68769C38.8597 10.2347 39.167 10.9765 39.167 11.7501C39.167 12.5236 38.8597 13.2655 38.3127 13.8125C37.7657 14.3595 37.0239 14.6667 36.2503 14.6667C35.4768 14.6667 34.7349 14.3595 34.1879 13.8125C33.6409 13.2655 33.3337 12.5236 33.3337 11.7501C33.3337 10.9765 33.6409 10.2347 34.1879 9.68769C34.7349 9.14071 35.4768 8.83341 36.2503 8.83341ZM24.0003 12.3334C27.0945 12.3334 30.062 13.5626 32.2499 15.7505C34.4378 17.9384 35.667 20.9059 35.667 24.0001C35.667 27.0943 34.4378 30.0617 32.2499 32.2497C30.062 34.4376 27.0945 35.6667 24.0003 35.6667C20.9061 35.6667 17.9387 34.4376 15.7507 32.2497C13.5628 30.0617 12.3337 27.0943 12.3337 24.0001C12.3337 20.9059 13.5628 17.9384 15.7507 15.7505C17.9387 13.5626 20.9061 12.3334 24.0003 12.3334ZM24.0003 17.0001C22.1438 17.0001 20.3633 17.7376 19.0506 19.0503C17.7378 20.3631 17.0003 22.1436 17.0003 24.0001C17.0003 25.8566 17.7378 27.6371 19.0506 28.9498C20.3633 30.2626 22.1438 31.0001 24.0003 31.0001C25.8568 31.0001 27.6373 30.2626 28.9501 28.9498C30.2628 27.6371 31.0003 25.8566 31.0003 24.0001C31.0003 22.1436 30.2628 20.3631 28.9501 19.0503C27.6373 17.7376 25.8568 17.0001 24.0003 17.0001Z" fill="white"/>
</svg>
