<svg width="38" height="36" viewBox="0 0 38 36" fill="none" xmlns="http://www.w3.org/2000/svg">
<path d="M33.3295 0C34.4275 0 35.4805 0.421427 36.2569 1.17157C37.0333 1.92172 37.4694 2.93913 37.4694 4V32C37.4694 33.0609 37.0333 34.0783 36.2569 34.8284C35.4805 35.5786 34.4275 36 33.3295 36H4.3499C3.25192 36 2.19891 35.5786 1.42252 34.8284C0.646132 34.0783 0.209961 33.0609 0.209961 32V4C0.209961 2.93913 0.646132 1.92172 1.42252 1.17157C2.19891 0.421427 3.25192 0 4.3499 0H33.3295ZM32.2945 31V20.4C32.2945 18.6708 31.5835 17.0124 30.318 15.7897C29.0525 14.5669 27.3361 13.88 25.5464 13.88C23.7869 13.88 21.7377 14.92 20.7441 16.48V14.26H14.9689V31H20.7441V21.14C20.7441 19.6 22.0275 18.34 23.6213 18.34C24.3899 18.34 25.127 18.635 25.6705 19.1601C26.214 19.6852 26.5193 20.3974 26.5193 21.14V31H32.2945ZM8.24145 11.12C9.16375 11.12 10.0483 10.766 10.7004 10.1359C11.3526 9.50576 11.719 8.65113 11.719 7.76C11.719 5.9 10.1665 4.38 8.24145 4.38C7.31365 4.38 6.42386 4.73611 5.76781 5.36998C5.11176 6.00385 4.7432 6.86357 4.7432 7.76C4.7432 9.62 6.31638 11.12 8.24145 11.12ZM11.1187 31V14.26H5.38489V31H11.1187Z" fill="white"/>
</svg>
